<?xml version="1.0" encoding="UTF-8"?>
<svg width="700pt" height="700pt" version="1.1" viewBox="0 0 700 700" xmlns="http://www.w3.org/2000/svg">
 <g>
  <path d="m588 35h-476c-42.699 0-77 32.199-77 72.102v361.9c0 39.898 34.301 72.102 77 72.102h50.398v107.1c0 6.3008 4.1992 12.602 10.5 15.398 2.8008 1.3984 4.8984 1.3984 7.6992 1.3984 4.1992 0 8.3984-1.3984 11.898-3.5l158.9-120.4h236.61c42.699 0 77-32.199 77-72.102v-361.9c0-39.902-34.301-72.102-77-72.102zm41.301 433.3c0 21-18.199 37.801-40.602 37.801h-244.3c-4.1992 0-8.3984 1.3984-11.898 3.5l-133.7 101.5v-88.203c0-9.1016-8.3984-16.801-18.199-16.801h-68.602c-22.398 0-40.602-16.801-40.602-37.801v-359.8c0-21 18.199-37.801 40.602-37.801h477.4c22.398 0 40.602 16.801 40.602 37.801v359.8z"/>
  <path d="m283.5 326.9-81.199-142.8h-44.801v204.4h39.898v-144.9l83.301 144.9h42.699v-204.4h-39.898z"/>
  <path d="m457.8 312.9h47.602c-2.1016 13.301-7.6992 23.801-16.801 32.199-9.1016 8.3984-21 12.602-35 12.602-14.699 0-27.301-4.8984-39.199-15.398-11.199-10.5-17.5-28-17.5-53.199 0-25.199 5.6016-43.398 16.102-56 10.5-12.602 23.801-18.898 40.602-18.898 8.3984 0 16.102 1.3984 23.102 4.8984 12.602 5.6016 20.301 15.398 23.801 29.398h42c-2.1016-19.602-11.199-36.398-27.301-49-16.102-13.301-36.398-19.602-62.301-19.602-30.102 0-53.898 9.8008-72.102 30.102-18.199 20.301-27.301 46.199-27.301 79.801 0 32.898 9.1016 58.801 27.301 77 17.5 18.898 39.199 28 66.5 28 16.801 0 30.102-3.5 41.301-10.5 6.3008-4.1992 14-10.5 22.398-20.301l4.1992 25.199h28l-0.003906-110.6h-85.398z"/>
 </g>
</svg>
